<svg width="122" height="30" viewBox="0 0 122 30" fill="none" xmlns="http://www.w3.org/2000/svg">
<path d="M21.5538 7.02072L28.9654 14.4633C29.1073 14.6061 29.1871 14.7995 29.1871 15.0013C29.1871 15.203 29.1073 15.3965 28.9654 15.5392L14.9509 29.6124C14.904 29.6596 14.8482 29.697 14.7869 29.7226C14.7255 29.7481 14.6598 29.7613 14.5933 29.7613C14.5269 29.7613 14.4612 29.7481 14.3998 29.7226C14.3385 29.697 14.2827 29.6596 14.2358 29.6124L11.7796 27.1459C11.7326 27.0988 11.6953 27.0428 11.6699 26.9812C11.6444 26.9196 11.6313 26.8536 11.6313 26.7869C11.6313 26.7202 11.6444 26.6541 11.6699 26.5925C11.6953 26.5309 11.7326 26.4749 11.7796 26.4278L23.1509 15.0089L18.3749 10.2129C18.3279 10.1658 18.2907 10.1098 18.2652 10.0482C18.2398 9.98662 18.2267 9.92059 18.2267 9.85389C18.2267 9.7872 18.2398 9.72115 18.2652 9.65954C18.2907 9.59793 18.3279 9.54196 18.3749 9.49482L20.8311 7.02834C20.8777 6.9795 20.9335 6.9405 20.9953 6.91363C21.057 6.88675 21.1235 6.87253 21.1909 6.87182C21.2582 6.87111 21.325 6.88392 21.3873 6.90949C21.4496 6.93506 21.5063 6.97288 21.5538 7.02072Z" fill="#40D457"/>
<path d="M14.946 0.390149L17.4022 2.85663C17.4492 2.90377 17.4865 2.95974 17.5119 3.02135C17.5373 3.08296 17.5504 3.149 17.5504 3.21569C17.5504 3.28238 17.5373 3.34843 17.5119 3.41004C17.4865 3.47165 17.4492 3.52762 17.4022 3.57475L6.03093 14.9937L10.8069 19.7896C10.8539 19.8367 10.8911 19.8927 10.9166 19.9543C10.942 20.0159 10.9551 20.082 10.9551 20.1487C10.9551 20.2154 10.942 20.2814 10.9166 20.343C10.8911 20.4046 10.8539 20.4606 10.8069 20.5077L8.35067 22.9742C8.30374 23.0214 8.248 23.0588 8.18665 23.0844C8.12529 23.1099 8.05953 23.1231 7.99312 23.1231C7.9267 23.1231 7.86092 23.1099 7.79957 23.0844C7.73822 23.0588 7.68248 23.0214 7.63554 22.9742L0.226516 15.5316C0.0845515 15.3889 0.00482178 15.1954 0.00482178 14.9937C0.00482178 14.7919 0.0845515 14.5984 0.226516 14.4557L14.2258 0.390149C14.2729 0.342197 14.3289 0.30411 14.3907 0.278117C14.4526 0.252124 14.5189 0.238739 14.5859 0.238739C14.6529 0.238739 14.7193 0.252124 14.7811 0.278117C14.8429 0.30411 14.899 0.342197 14.946 0.390149Z" fill="#40D457"/>
<path d="M38.0347 18.8241C38.2476 19.0835 38.5042 19.3033 38.7927 19.4737C39.0933 19.6574 39.4106 19.812 39.7404 19.9355C40.0685 20.0599 40.4067 20.1558 40.7511 20.2223C41.0791 20.287 41.4125 20.321 41.7467 20.3238C42.0444 20.323 42.341 20.289 42.6312 20.2223C42.904 20.1632 43.1646 20.0577 43.4019 19.9101C43.6242 19.7698 43.8083 19.5763 43.9376 19.3468C44.0787 19.0783 44.1475 18.7774 44.1373 18.4739C44.138 18.2541 44.0864 18.0374 43.9866 17.8418C43.8867 17.6462 43.7417 17.4775 43.5636 17.3498C43.1256 17.0155 42.6498 16.7344 42.146 16.5124C41.58 16.2586 40.9634 15.9871 40.2912 15.7131C39.641 15.4486 39.0195 15.1178 38.4365 14.726C37.8834 14.3508 37.4044 13.8759 37.0239 13.3252C36.6261 12.7189 36.4265 12.0031 36.4528 11.2775C36.4366 10.583 36.581 9.89415 36.8748 9.26519C37.1453 8.70696 37.5364 8.2163 38.0195 7.82894C38.5159 7.4377 39.0819 7.1449 39.6873 6.96617C40.3434 6.77124 41.0246 6.67462 41.7088 6.67943C42.6394 6.67652 43.563 6.84154 44.4354 7.16664C45.2901 7.48248 46.0661 7.98122 46.7097 8.62827L44.6199 10.7014C44.1942 10.326 43.6998 10.0373 43.1644 9.85136C42.6191 9.64365 42.0418 9.53371 41.4587 9.52655C40.9628 9.51654 40.4747 9.65143 40.0537 9.9148C39.6477 10.1736 39.4439 10.6025 39.4422 11.2013C39.445 11.4119 39.4987 11.6187 39.5986 11.8039C39.6985 11.9891 39.8417 12.1471 40.0158 12.2645C40.4591 12.5907 40.9392 12.8632 41.446 13.0766C42.0197 13.3303 42.6362 13.5841 43.3008 13.8505C43.9503 14.1098 44.571 14.4364 45.1531 14.8249C45.7185 15.2012 46.2052 15.6848 46.5859 16.2485C46.9842 16.8828 47.1832 17.6229 47.1569 18.3724C47.1724 19.1219 47.0058 19.8639 46.6718 20.5344C46.3641 21.1399 45.9266 21.6695 45.3906 22.0848C44.8417 22.5017 44.2217 22.8147 43.5611 23.0085C42.8626 23.2182 42.1372 23.3233 41.4081 23.3206C40.4257 23.3269 39.4515 23.1408 38.54 22.7725C37.6167 22.3919 36.7884 21.8114 36.1142 21.0723L38.0347 18.8241Z" fill="#122F38"/>
<path d="M52.3195 11.8762H54.0379V14.4493H52.3195V23.1201H49.5399V14.4493H47.8241V11.8762H49.5399V8.70178H52.3195V11.8762Z" fill="#122F38"/>
<path d="M54.7833 17.4994C54.7768 16.7301 54.93 15.9679 55.2331 15.2613C55.5218 14.5858 55.9351 13.971 56.4511 13.4495C56.9733 12.9289 57.59 12.5137 58.268 12.2264C58.9676 11.9266 59.7209 11.7737 60.4816 11.7773C61.1435 11.7703 61.8001 11.8971 62.4122 12.1503C62.9778 12.3877 63.4926 12.7323 63.9283 13.1653L64.0294 11.8661H66.4907V23.1201H64.0294L63.9283 21.8209C63.4932 22.2547 62.9783 22.5994 62.4122 22.8359C61.8006 23.091 61.1438 23.2188 60.4816 23.2114C59.7209 23.215 58.9676 23.0622 58.268 22.7623C57.5899 22.4741 56.9731 22.0581 56.4511 21.5366C55.934 21.016 55.5206 20.4011 55.2331 19.7248C54.9311 19.0224 54.7779 18.2645 54.7833 17.4994ZM57.563 17.4994C57.562 17.895 57.6428 18.2864 57.8005 18.6489C57.9538 19.0076 58.1733 19.3339 58.4474 19.6107C58.7246 19.8871 59.049 20.1115 59.4051 20.273C59.7804 20.4438 60.1883 20.5304 60.6003 20.5267C61.0115 20.5301 61.4186 20.4435 61.7931 20.273C62.1472 20.1132 62.4685 19.8886 62.7407 19.6107C63.0076 19.3307 63.2225 19.005 63.3749 18.6489C63.5306 18.2859 63.6106 17.8947 63.61 17.4994C63.6111 17.1041 63.5311 16.7128 63.3749 16.3499C63.2237 15.9932 63.0088 15.6672 62.7407 15.3882C62.4713 15.1101 62.1491 14.8892 61.7931 14.7386C61.4163 14.5767 61.0101 14.4955 60.6003 14.5001C60.1897 14.4952 59.7827 14.5764 59.4051 14.7386C59.0471 14.891 58.7218 15.1116 58.4474 15.3882C58.1724 15.6642 57.9527 15.9907 57.8005 16.3499C57.645 16.7128 57.5666 17.1044 57.5705 17.4994H57.563Z" fill="#122F38"/>
<path d="M71.7543 8.70178V23.1201H68.8938V8.70178H71.7543ZM76.2093 11.8762H79.4186L75.1809 17.3725L79.4186 23.1201H76.2093L71.954 17.2482L76.2093 11.8762Z" fill="#122F38"/>
<path d="M88.1289 22.171C87.6637 22.5288 87.1357 22.7957 86.5723 22.9576C86.0114 23.1255 85.4292 23.211 84.8439 23.2114C84.0864 23.216 83.3362 23.0631 82.6404 22.7623C81.9651 22.4703 81.3499 22.0547 80.8261 21.5366C80.3011 21.0194 79.8822 20.4038 79.5929 19.7248C79.2933 19.027 79.141 18.2745 79.1456 17.5146C79.1396 16.7456 79.2919 15.9837 79.5929 15.2765C79.8833 14.5975 80.2972 13.9788 80.8134 13.452C81.3321 12.9252 81.9485 12.5054 82.6278 12.2163C83.3282 11.9161 84.0824 11.7633 84.8439 11.7671C85.6059 11.7626 86.3603 11.92 87.0575 12.229C87.7375 12.5237 88.3545 12.9477 88.8744 13.4774C89.3906 14.0042 89.8045 14.6229 90.0949 15.3019C90.3945 16.0006 90.5467 16.754 90.5422 17.5146C90.5426 17.9573 90.5172 18.3996 90.4664 18.8392H82.3549C82.5245 19.3552 82.8505 19.805 83.2873 20.1258C83.7314 20.4511 84.269 20.6221 84.8186 20.613C85.1251 20.6092 85.4299 20.5666 85.7258 20.4861C86.0267 20.4189 86.3005 20.2624 86.5117 20.0369L88.1289 22.171ZM87.6235 16.6747C87.4505 16.0657 87.0829 15.5308 86.5774 15.1522C86.0789 14.7663 85.4657 14.5599 84.8363 14.566C84.2081 14.5541 83.5944 14.7562 83.0953 15.1395C82.6016 15.5224 82.2466 16.0572 82.0845 16.662L87.6235 16.6747Z" fill="#122F38"/>
<path d="M102.56 19.5472C102.351 20.0876 102.061 20.5932 101.701 21.0469C101.352 21.4898 100.942 21.881 100.483 22.2091C100.021 22.5412 99.5091 22.7981 98.9671 22.9704C98.3989 23.1445 97.8074 23.23 97.2134 23.2241C96.4527 23.2281 95.6993 23.0752 94.9998 22.775C94.3213 22.4875 93.7045 22.0713 93.1829 21.5494C92.6623 21.0262 92.2478 20.4066 91.9624 19.7249C91.6637 19.0223 91.5115 18.2658 91.5151 17.502C91.5069 16.7297 91.6583 15.9642 91.9598 15.2537C92.2503 14.5754 92.6691 13.9601 93.193 13.4419C93.7169 12.9247 94.3322 12.5099 95.0073 12.2188C95.7115 11.9166 96.4703 11.7637 97.2361 11.7697C97.8231 11.7682 98.4066 11.8607 98.9645 12.0437C99.5093 12.2209 100.025 12.4774 100.496 12.805C100.96 13.1302 101.375 13.5217 101.727 13.9672C102.083 14.4185 102.365 14.925 102.56 15.4669L99.945 16.3982C99.7295 15.8658 99.362 15.4094 98.8887 15.0863C98.403 14.7485 97.8244 14.5711 97.2336 14.5788C96.8368 14.5748 96.4433 14.6507 96.0762 14.802C95.7276 14.9466 95.4108 15.1587 95.1438 15.4263C94.8779 15.6963 94.666 16.015 94.5196 16.3652C94.3704 16.7253 94.2948 17.1119 94.2973 17.502C94.2951 17.892 94.3707 18.2786 94.5196 18.6388C94.6663 18.9858 94.8782 19.3012 95.1438 19.5675C95.4122 19.8365 95.7285 20.0526 96.0762 20.2045C96.4408 20.3655 96.8353 20.4468 97.2336 20.443C97.8162 20.4478 98.3858 20.2704 98.8635 19.9355C99.3417 19.6068 99.7099 19.1407 99.9197 18.5982L102.56 19.5472Z" fill="#122F38"/>
<path d="M111.316 23.1201V21.7727C110.942 22.2155 110.481 22.5765 109.962 22.8334C109.423 23.096 108.83 23.2289 108.231 23.2216C107.655 23.225 107.084 23.1102 106.553 22.8841C106.041 22.6672 105.576 22.3527 105.183 21.9579C104.792 21.5632 104.481 21.0962 104.266 20.5826C104.04 20.0492 103.925 19.4748 103.93 18.8951V11.8763H106.692V18.3242C106.691 18.6362 106.751 18.9455 106.866 19.2351C106.975 19.5162 107.136 19.7743 107.339 19.9964C107.542 20.2174 107.787 20.3959 108.059 20.5217C108.348 20.6571 108.663 20.7256 108.981 20.7221C109.307 20.7273 109.63 20.6588 109.926 20.5217C110.208 20.3891 110.457 20.1979 110.659 19.9609C110.87 19.7135 111.035 19.4298 111.144 19.1235C111.261 18.8033 111.32 18.4647 111.319 18.1237V11.8763H114.098V23.1201H111.316Z" fill="#122F38"/>
<path d="M120.277 11.8762H121.995V14.4493H120.277V23.1201H117.497V14.4493H115.781V11.8762H117.497V8.70178H120.277V11.8762Z" fill="#122F38"/>
</svg>
