<svg width="86" height="40" viewBox="0 0 128 43" fill="none" xmlns="http://www.w3.org/2000/svg">
<path d="M19.1084 21.6046C19.1084 29.9704 26.8506 35.5425 37.0876 39.3736C38.8102 40.0184 37.8595 42.0044 36.0326 41.7912C21.5391 40.0999 3.6084 34.6065 3.6084 21.6046C3.6084 9.35546 21.6755 2.58542 36.0326 0.164852C37.9377 -0.156339 38.8818 2.06389 37.0876 2.78024C27.5911 6.57174 19.1084 13.0495 19.1084 21.6046Z" fill="black"/>
<path d="M57.8353 42.0131L55.1588 35.3013C54.8241 34.4619 53.6358 34.4619 53.3011 35.3013L50.6246 42.0131H44.967L35.4268 15.5H43.1921L48.0368 30.1767C48.3236 31.0455 49.5299 31.1049 49.9006 30.2685L51.2348 27.2589L45.9654 15.5H52.3996L53.4877 18.3412C53.8124 19.1892 55.0083 19.2002 55.3486 18.3583L56.5041 15.5H62.55L57.3916 26.9261L58.8989 30.3013C59.2703 31.1329 60.4693 31.0756 60.7598 30.2125L65.7116 15.5H73.0886L63.4929 42.0131H57.8353Z" fill="black"/>
<path d="M74.3881 42V15.4869H81.9315V42H74.3881ZM78.2153 12.3808C76.958 12.3808 75.9411 11.9371 75.1646 11.0496C74.3881 10.1252 73.9998 9.01583 73.9998 7.72161C73.9998 6.42738 74.3881 5.35503 75.1646 4.50454C75.9411 3.61707 76.9765 3.17334 78.2708 3.17334C79.528 3.17334 80.5449 3.61707 81.3214 4.50454C82.098 5.35503 82.4862 6.42738 82.4862 7.72161C82.4862 9.01583 82.098 10.1252 81.3214 11.0496C80.5449 11.9371 79.5095 12.3808 78.2153 12.3808Z" fill="black"/>
<path d="M99.5313 41.3899C99.0875 41.5748 98.4774 41.7227 97.7009 41.8336C96.9244 41.9445 96.0924 42 95.2049 42C93.6148 42 92.1542 41.7597 90.823 41.2789C89.5288 40.7982 88.401 40.1141 87.4396 39.2267C86.5151 38.3022 85.794 37.1744 85.2764 35.8432C84.7587 34.512 84.4998 32.9774 84.4998 31.2395V7.55521H92.0433V14.4869C92.0433 15.0392 92.491 15.4869 93.0433 15.4869H98.6993V21.3109H93.0433C92.491 21.3109 92.0433 21.7587 92.0433 22.3109V31.2395C92.0433 32.4967 92.3761 33.5506 93.0417 34.4011C93.7443 35.2146 94.7242 35.6213 95.9814 35.6213C96.758 35.6213 97.4051 35.5659 97.9228 35.4549C98.4774 35.344 99.0136 35.1961 99.5313 35.0112V41.3899Z" fill="black"/>
<path d="M113.422 42C111.425 42 109.576 41.6672 107.875 41.0016C106.174 40.299 104.695 39.3376 103.438 38.1173C102.218 36.8601 101.256 35.381 100.554 33.68C99.8511 31.979 99.4998 30.1116 99.4998 28.0779C99.4998 26.0441 99.8511 24.1767 100.554 22.4757C101.256 20.7748 102.218 19.3141 103.438 18.0939C104.695 16.8366 106.174 15.8752 107.875 15.2096C109.576 14.507 111.425 14.1557 113.422 14.1557C115.419 14.1557 117.268 14.507 118.969 15.2096C120.67 15.8752 122.13 16.8366 123.35 18.0939C124.608 19.3141 125.588 20.7748 126.29 22.4757C126.993 24.1767 127.344 26.0441 127.344 28.0779C127.344 30.1116 126.993 31.979 126.29 33.68C125.588 35.381 124.608 36.8601 123.35 38.1173C122.13 39.3376 120.67 40.299 118.969 41.0016C117.268 41.6672 115.419 42 113.422 42ZM113.422 36.0651C115.382 36.0651 116.935 35.3995 118.081 34.0683C119.227 32.7371 119.801 30.7403 119.801 28.0779C119.801 25.4155 119.227 23.4187 118.081 22.0875C116.935 20.7563 115.382 20.0907 113.422 20.0907C111.462 20.0907 109.909 20.7563 108.763 22.0875C107.616 23.4187 107.043 25.4155 107.043 28.0779C107.043 30.7403 107.616 32.7371 108.763 34.0683C109.909 35.3995 111.462 36.0651 113.422 36.0651Z" fill="black"/>
</svg>